<?xml version="1.0"?>
<svg xmlns="http://www.w3.org/2000/svg" height="512px" viewBox="-30 0 511 512" width="512px"><g><path d="m376.507812 309.5c0-106.316406-67.160156-192.5-150.007812-192.5s-150.007812 86.183594-150.007812 192.5c0 106.3125 67.160156 192.496094 150.007812 192.496094s150.007812-86.183594 150.007812-192.496094zm0 0" fill="#ffbf9e" data-original="#FFBF9E"/><g fill="#8690a6"><path d="m378.550781 445c-.789062 0-1.585937-.046875-2.390625-.140625-10.96875-1.308594-18.800781-11.257813-17.496094-22.226563 9.335938-78.40625-39.46875-215.496093-39.964843-216.875-3.734375-10.394531 1.667969-21.847656 12.0625-25.582031 10.398437-3.734375 22.851562 1.667969 26.585937 12.0625 2.148438 5.980469 51.476563 147.449219 41.039063 235.125-1.210938 10.164063-9.847657 17.636719-19.835938 17.636719zm0 0" data-original="#000000" class=""/><path d="m419.550781 502c-.820312 0-1.648437-.050781-2.484375-.152344-10.964844-1.363281-18.746094-11.351562-17.386718-22.3125 15.246093-122.921875-37.503907-272.421875-38.027344-273.917968-3.65625-10.421876 2.832031-21.835938 13.257812-25.492188 10.421875-3.65625 21.835938 1.832031 25.492188 12.257812 2.265625 6.46875 55.363281 159.941407 38.976562 292.078126-1.257812 10.125-9.878906 17.539062-19.828125 17.539062zm0 0" data-original="#000000" class=""/><path d="m74.449219 445c.789062 0 1.585937-.046875 2.390625-.140625 10.96875-1.308594 18.800781-11.257813 17.496094-22.226563-9.335938-78.40625 39.46875-215.496093 39.964843-216.875 3.734375-10.394531-1.667969-21.847656-12.0625-25.582031-10.398437-3.734375-22.851562 1.667969-26.585937 12.0625-2.148438 5.980469-51.476563 147.449219-41.039063 235.125 1.210938 10.164063 9.847657 17.636719 19.835938 17.636719zm0 0" data-original="#000000" class=""/><path d="m33.449219 502c.820312 0 1.648437-.050781 2.484375-.152344 10.960937-1.363281 18.746094-11.351562 17.386718-22.3125-15.246093-122.921875 37.503907-272.421875 38.027344-273.917968 3.65625-10.421876-2.832031-21.835938-13.257812-25.492188-10.421875-3.65625-21.835938 1.832031-25.492188 12.257812-2.265625 6.46875-55.367187 159.941407-38.976562 292.078126 1.257812 10.125 9.878906 17.539062 19.828125 17.539062zm0 0" data-original="#000000" class=""/></g><path d="m226.5 125c89.03125 0 164.460938 23.269531 190.386719 55.429688 1.394531-6.066407 2.125-12.84375 2.125-20.429688 0-82.84375-86.191407-150-192.511719-150s-192.511719 67.15625-192.511719 150c0 7.585938.730469 14.363281 2.125 20.429688 25.925781-32.160157 101.355469-55.429688 190.386719-55.429688zm0 0" fill="#ff6977" data-original="#FF6977"/><path d="m416.886719 180.429688c-25.925781-32.160157-101.355469-55.429688-190.386719-55.429688s-164.460938 23.269531-190.382812 55.429688c3.15625 13.726562 9.753906 23.769531 19.207031 31.09375 31.980469-19.316407 96.628906-32.523438 171.175781-32.523438 74.550781 0 139.195312 13.207031 171.179688 32.523438 9.453124-7.324219 16.046874-17.371094 19.207031-31.09375zm0 0" fill="#ffc15a" data-original="#FFC15A"/><path d="m55.320312 211.523438c31.984376 24.785156 96.628907 18.476562 171.179688 18.476562 74.546875 0 139.195312 6.308594 171.175781-18.476562-31.980469-19.316407-96.628906-32.523438-171.175781-32.523438-74.550781 0-139.195312 13.207031-171.179688 32.523438zm0 0" fill="#78d0a9" data-original="#78D0A9" class="active-path" style="fill:#78D0A9" data-old_color="#78d0a9"/><path d="m206.746094 302.546875-25-20c-3.652344-2.921875-8.84375-2.921875-12.496094 0l-25 20c-4.3125 3.449219-5.011719 9.742187-1.5625 14.058594 3.449219 4.308593 9.742188 5.011719 14.054688 1.558593l18.753906-15s18.71875 14.972657 18.753906 15c4.082031 3.265626 10.613281 2.746094 14.058594-1.558593 3.449218-4.316407 2.75-10.609375-1.5625-14.058594zm0 0" data-original="#000000" class=""/><path d="m308.75 302.546875-25-20c-3.652344-2.921875-8.839844-2.921875-12.496094 0l-25 20c-4.3125 3.449219-5.011718 9.742187-1.5625 14.058594 3.449219 4.308593 9.742188 5.011719 14.058594 1.558593l18.753906-15 18.753906 15c1.84375 1.476563 4.046876 2.195313 6.238282 2.195313 2.933594 0 5.839844-1.285156 7.816406-3.753906 3.449219-4.316407 2.75-10.609375-1.5625-14.058594zm0 0" data-original="#000000" class=""/><path d="m415.707031 207.1875c-.402343-1.3125 6.5-11.042969 7.289063-13.054688 4.269531-10.851562 6.015625-22.523437 6.015625-34.132812 0-43.21875-21.394531-83.6875-60.238281-113.953125-38.109376-29.695313-88.636719-46.046875-142.273438-46.046875s-104.164062 16.351562-142.273438 46.046875c-38.84375 30.265625-60.238281 70.734375-60.238281 113.953125 0 16.328125 3.550781 33.816406 13.304688 47.1875-14.050781 45.734375-47.160157 169.128906-33.59375 278.503906 1.859375 14.996094 14.648437 26.308594 29.75 26.308594 17.542969 0 32-15.9375 29.796875-33.695312-1.082032-8.714844-1.808594-17.566407-2.234375-26.492188 4.058593 2.039062 8.628906 3.1875 13.4375 3.1875 11.4375 0 22.925781-7.371094 27.582031-18.121094 3.292969 5.140625 6.792969 10.113282 10.507812 14.882813 30.269532 38.84375 70.742188 60.234375 113.960938 60.234375s83.691406-21.390625 113.960938-60.234375c3.714843-4.769531 7.21875-9.734375 10.511718-14.878907 1.019532 2.359376 2.347656 4.601563 3.980469 6.671876 5.648437 7.179687 14.472656 11.445312 23.597656 11.445312 4.8125 0 9.382813-1.148438 13.441407-3.191406-.425782 8.925781-1.15625 17.78125-2.238282 26.496094-2.144531 17.300781 12.269532 33.695312 29.800782 33.695312 15.097656 0 27.886718-11.3125 29.746093-26.308594 13.570313-109.382812-19.542969-232.78125-33.59375-278.503906zm-189.207031-187.1875c100.355469 0 182.050781 62.449219 182.507812 139.347656-.128906-.097656-.261718-.191406-.390624-.285156-18.070313-13.414062-39.003907-21.65625-60.421876-27.996094-35.5-10.511718-77.582031-16.066406-121.695312-16.066406s-86.195312 5.554688-121.695312 16.066406c-21.210938 6.28125-42.996094 14.9375-60.8125 28.28125.082031-13.734375 2.765624-27.003906 7.675781-39.542968 17.820312-10.09375 42.269531-18.609376 70.894531-24.632813 5.390625-1.140625 8.851562-6.460937 7.710938-11.847656-1.082032-5.132813-6.707032-8.84375-11.847657-7.722657-15.640625 3.308594-30.171875 7.320313-43.195312 11.910157-2.300781.8125-4.542969 1.652343-6.757813 2.503906 31.597656-41.824219 90.601563-70.015625 158.027344-70.015625zm148.097656 169.808594c-36.433594-13.367188-76.285156-17.695313-114.816406-19.867188-40.386719-2.277344-81.242188-.832031-121.214844 5.558594-3.410156.546875-6.816406 1.128906-10.214844 1.753906-24.160156 4.429688-49.5625 10.628906-71.472656 21.957032-.066406.035156-.132812.066406-.199218.097656-4.261719-4.5-7.402344-9.898438-9.492188-16.3125.082031-.085938.164062-.171875.246094-.257813 21.640625-22.164062 55.996094-31.796875 85.394531-38.015625 38.585937-8.164062 78.242187-11.210937 117.621094-9.160156 38.039062 1.984375 76.539062 7.804688 112.222656 21.578125 15.230469 5.882813 31.324219 13.761719 42.882813 25.589844.085937.085937.167968.175781.253906.265625-2.089844 6.414062-5.226563 11.8125-9.488282 16.3125-.066406-.035156-.140624-.066406-.203124-.101563-6.929688-3.578125-14.128907-6.6875-21.519532-9.398437zm1.414063 22.15625c-26.109375 9.699218-66.25 9.09375-111.40625 8.414062-25.410157-.386718-50.800781-.386718-76.210938 0-45.15625.679688-85.296875 1.285156-111.40625-8.414062.09375-.039063.183594-.078125.28125-.117188 23.480469-9.550781 49.097657-14.59375 74.136719-17.933594 26.886719-3.589843 54.109375-5.28125 81.234375-4.851562 16.738281.261719 33.441406 1.070312 50.105469 2.660156 25.722656 2.457032 51.3125 6.898438 76.082031 14.34375 5.707031 1.714844 11.394531 3.539063 16.898437 5.777344.097657.039062.1875.082031.285157.121094zm-329.253907 138.320312c-5.929687 41.878906-8.667968 87.707032-3.359374 130.480469.679687 5.472656-3.222657 10.476563-8.691407 11.15625-.417969.050781-.84375.078125-1.257812.078125-5.027344 0-9.28125-3.769531-9.902344-8.769531-12.28125-99.015625 15.253906-210.523438 30.007813-260.707031 5.695312 3.71875 12.09375 6.703124 19.113281 9.082031-1.570313 5.375-3.269531 11.378906-5.035157 17.941406-7.859374 28.949219-16.246093 65.011719-20.875 100.738281zm37.648438 73.53125c.644531 5.445313-3.328125 10.464844-8.75 11.113282-.402344.046874-.808594.070312-1.207031.070312-5.046875 0-9.308594-3.792969-9.90625-8.820312-3.882813-32.601563-.703125-65.667969 5.195312-97.828126 1.332031-7.285156 19.527344-92.355468 22.433594-91.828124 6.589844 1.195312 13.546875 2.070312 20.832031 2.699218-14.167968 47.210938-35.15625 129.511719-28.597656 184.59375zm142.09375 68.179688c-53.253906 0-99.652344-38.964844-123.316406-96.164063 1.054687-51.726562 18.683594-117.367187 30.339844-155.445312 0 0 52.382812.03125 55.171874-.011719 25.207032-.382812 50.398438-.382812 75.605469 0 19.425781.292969 37.976563.566406 55.171875.011719 11.660156 38.082031 29.292969 103.734375 30.34375 155.460937-23.664062 57.195313-70.066406 96.148438-123.316406 96.148438zm161.957031-65.816406c-.601562 5.027343-4.859375 8.820312-9.90625 8.820312-.398437 0-.804687-.023438-1.203125-.070312-5.28125-.628907-9.378906-5.855469-8.753906-11.113282 6.558594-55.082031-14.429688-137.386718-28.597656-184.597656 7.285156-.628906 14.242187-1.507812 20.832031-2.699219 5.316406-.953125 21.027344 89.210938 22.695313 98.058594 5.609374 29.765625 8.527343 61.425781 4.933593 91.601563zm40.996094 57.050781c-.621094 5-4.875 8.769531-9.902344 8.769531-.414062 0-.839843-.027344-1.253906-.078125-5.472656-.679687-9.375-5.683594-8.695313-11.15625 5.296876-42.691406 2.578126-88.421875-3.332031-130.242187-4.660156-36.101563-13.167969-72.570313-21.101562-101.710938-1.695313-6.277344-3.328125-12.042969-4.839844-17.21875 7.019531-2.382812 13.417969-5.367188 19.109375-9.085938 14.757812 50.175782 42.296875 161.695313 30.015625 260.722657zm0 0" data-original="#000000" class=""/><path d="m159.945312 88.910156c.402344 0 .8125-.03125 1.210938-.082031 5.480469-.660156 9.390625-5.648437 8.730469-11.128906-.609375-5.011719-4.871094-8.800781-9.921875-8.800781-.398438 0-.808594.03125-1.21875.082031-5.417969 0-9.316406 6.199219-8.722656 11.117187.613281 5.023438 4.871093 8.8125 9.921874 8.8125zm0 0" data-original="#000000" class=""/></g> </svg>
